<mxfile host="app.diagrams.net" modified="2024-05-15T07:49:59.553Z" agent="Mozilla/5.0 (Macintosh; Intel Mac OS X 10_15_7) AppleWebKit/605.1.15 (KHTML, like Gecko) Version/17.1.2 Safari/605.1.15" etag="mE8hJ_6a4StVuemgMAL4" version="24.4.0" type="github">
  <diagram name="第 1 页" id="0mB8UxOhMwRLn32wMXC0">
    <mxGraphModel dx="1242" dy="1996" grid="1" gridSize="10" guides="1" tooltips="1" connect="1" arrows="1" fold="1" page="1" pageScale="1" pageWidth="827" pageHeight="1169" math="0" shadow="0">
      <root>
        <mxCell id="0" />
        <mxCell id="1" parent="0" />
        <mxCell id="bC1rEitKyBzmBk8r_V0F-11" value="" style="endArrow=none;html=1;rounded=0;entryX=0.5;entryY=1;entryDx=0;entryDy=0;exitX=0.5;exitY=0;exitDx=0;exitDy=0;strokeColor=#006633;" edge="1" parent="1">
          <mxGeometry width="50" height="50" relative="1" as="geometry">
            <mxPoint x="160" y="390" as="sourcePoint" />
            <mxPoint x="160" y="330" as="targetPoint" />
          </mxGeometry>
        </mxCell>
        <mxCell id="bC1rEitKyBzmBk8r_V0F-12" value="" style="ellipse;whiteSpace=wrap;html=1;aspect=fixed;fillColor=#006633;strokeColor=#006633;" vertex="1" parent="1">
          <mxGeometry x="150" y="230" width="20" height="20" as="geometry" />
        </mxCell>
        <mxCell id="bC1rEitKyBzmBk8r_V0F-13" value="" style="endArrow=none;html=1;rounded=0;entryX=0.5;entryY=1;entryDx=0;entryDy=0;exitX=0.5;exitY=0;exitDx=0;exitDy=0;strokeColor=#006633;" edge="1" parent="1" target="bC1rEitKyBzmBk8r_V0F-12">
          <mxGeometry width="50" height="50" relative="1" as="geometry">
            <mxPoint x="160" y="310" as="sourcePoint" />
            <mxPoint x="480" y="240" as="targetPoint" />
          </mxGeometry>
        </mxCell>
        <mxCell id="bC1rEitKyBzmBk8r_V0F-15" value="" style="endArrow=none;html=1;rounded=0;exitX=1;exitY=0.5;exitDx=0;exitDy=0;strokeColor=#FF99FF;" edge="1" parent="1">
          <mxGeometry width="50" height="50" relative="1" as="geometry">
            <mxPoint x="170" y="320" as="sourcePoint" />
            <mxPoint x="200" y="280" as="targetPoint" />
          </mxGeometry>
        </mxCell>
        <mxCell id="bC1rEitKyBzmBk8r_V0F-16" value="" style="endArrow=none;html=1;rounded=0;strokeColor=#FF99FF;" edge="1" parent="1">
          <mxGeometry width="50" height="50" relative="1" as="geometry">
            <mxPoint x="200" y="280" as="sourcePoint" />
            <mxPoint x="200" y="200" as="targetPoint" />
          </mxGeometry>
        </mxCell>
        <mxCell id="bC1rEitKyBzmBk8r_V0F-17" value="" style="ellipse;whiteSpace=wrap;html=1;aspect=fixed;fillColor=#FF99FF;strokeColor=#FF99FF;" vertex="1" parent="1">
          <mxGeometry x="150" y="150" width="20" height="20" as="geometry" />
        </mxCell>
        <mxCell id="bC1rEitKyBzmBk8r_V0F-19" value="" style="endArrow=none;html=1;rounded=0;entryX=1;entryY=0.5;entryDx=0;entryDy=0;strokeColor=#FF99FF;" edge="1" parent="1" target="bC1rEitKyBzmBk8r_V0F-17">
          <mxGeometry width="50" height="50" relative="1" as="geometry">
            <mxPoint x="200" y="200" as="sourcePoint" />
            <mxPoint x="400" y="270" as="targetPoint" />
          </mxGeometry>
        </mxCell>
        <mxCell id="bC1rEitKyBzmBk8r_V0F-21" value="" style="endArrow=none;html=1;rounded=0;strokeColor=#007FFF;" edge="1" parent="1">
          <mxGeometry width="50" height="50" relative="1" as="geometry">
            <mxPoint x="170" y="320" as="sourcePoint" />
            <mxPoint x="240" y="280" as="targetPoint" />
          </mxGeometry>
        </mxCell>
        <mxCell id="bC1rEitKyBzmBk8r_V0F-22" value="" style="endArrow=none;html=1;rounded=0;strokeColor=#007FFF;" edge="1" parent="1">
          <mxGeometry width="50" height="50" relative="1" as="geometry">
            <mxPoint x="240" y="280" as="sourcePoint" />
            <mxPoint x="240" y="120" as="targetPoint" />
          </mxGeometry>
        </mxCell>
        <mxCell id="bC1rEitKyBzmBk8r_V0F-23" value="" style="ellipse;whiteSpace=wrap;html=1;aspect=fixed;fillColor=#007FFF;strokeColor=#007FFF;" vertex="1" parent="1">
          <mxGeometry x="150" y="70" width="20" height="20" as="geometry" />
        </mxCell>
        <mxCell id="bC1rEitKyBzmBk8r_V0F-24" value="" style="endArrow=none;html=1;rounded=0;exitX=1;exitY=0.5;exitDx=0;exitDy=0;strokeColor=#007FFF;" edge="1" parent="1" source="bC1rEitKyBzmBk8r_V0F-23">
          <mxGeometry width="50" height="50" relative="1" as="geometry">
            <mxPoint x="250" y="290" as="sourcePoint" />
            <mxPoint x="240" y="120" as="targetPoint" />
          </mxGeometry>
        </mxCell>
        <mxCell id="bC1rEitKyBzmBk8r_V0F-25" value="" style="ellipse;whiteSpace=wrap;html=1;aspect=fixed;fillColor=#CC0000;strokeColor=#CC0000;" vertex="1" parent="1">
          <mxGeometry x="150" y="-10" width="20" height="20" as="geometry" />
        </mxCell>
        <mxCell id="bC1rEitKyBzmBk8r_V0F-26" value="" style="endArrow=none;html=1;rounded=0;strokeColor=#CC0000;" edge="1" parent="1">
          <mxGeometry width="50" height="50" relative="1" as="geometry">
            <mxPoint x="170" y="320" as="sourcePoint" />
            <mxPoint x="280" y="280" as="targetPoint" />
          </mxGeometry>
        </mxCell>
        <mxCell id="bC1rEitKyBzmBk8r_V0F-27" value="" style="endArrow=none;html=1;rounded=0;strokeColor=#CC0000;" edge="1" parent="1">
          <mxGeometry width="50" height="50" relative="1" as="geometry">
            <mxPoint x="280" y="40" as="sourcePoint" />
            <mxPoint x="280" y="280" as="targetPoint" />
          </mxGeometry>
        </mxCell>
        <mxCell id="bC1rEitKyBzmBk8r_V0F-28" value="" style="endArrow=none;html=1;rounded=0;entryX=1;entryY=0.5;entryDx=0;entryDy=0;strokeColor=#CC0000;" edge="1" parent="1" target="bC1rEitKyBzmBk8r_V0F-25">
          <mxGeometry width="50" height="50" relative="1" as="geometry">
            <mxPoint x="280" y="40" as="sourcePoint" />
            <mxPoint x="250" y="100" as="targetPoint" />
          </mxGeometry>
        </mxCell>
        <mxCell id="bC1rEitKyBzmBk8r_V0F-30" value="" style="ellipse;whiteSpace=wrap;html=1;aspect=fixed;fillColor=#006633;strokeColor=#006633;" vertex="1" parent="1">
          <mxGeometry x="150" y="310" width="20" height="20" as="geometry" />
        </mxCell>
        <mxCell id="bC1rEitKyBzmBk8r_V0F-31" value="" style="ellipse;whiteSpace=wrap;html=1;aspect=fixed;fillColor=#006633;strokeColor=#006633;" vertex="1" parent="1">
          <mxGeometry x="150" y="390" width="20" height="20" as="geometry" />
        </mxCell>
        <mxCell id="bC1rEitKyBzmBk8r_V0F-32" value="" style="ellipse;whiteSpace=wrap;html=1;aspect=fixed;fillColor=#006633;strokeColor=#006633;" vertex="1" parent="1">
          <mxGeometry x="150" y="470" width="20" height="20" as="geometry" />
        </mxCell>
        <mxCell id="bC1rEitKyBzmBk8r_V0F-33" value="" style="endArrow=none;html=1;rounded=0;entryX=0.5;entryY=1;entryDx=0;entryDy=0;exitX=0.5;exitY=0;exitDx=0;exitDy=0;strokeColor=#006633;" edge="1" parent="1">
          <mxGeometry width="50" height="50" relative="1" as="geometry">
            <mxPoint x="159.71" y="470" as="sourcePoint" />
            <mxPoint x="159.71" y="410" as="targetPoint" />
          </mxGeometry>
        </mxCell>
        <mxCell id="bC1rEitKyBzmBk8r_V0F-35" value="" style="ellipse;whiteSpace=wrap;html=1;aspect=fixed;fillColor=#660033;strokeColor=#CC0000;" vertex="1" parent="1">
          <mxGeometry x="150" y="-90" width="20" height="20" as="geometry" />
        </mxCell>
        <mxCell id="bC1rEitKyBzmBk8r_V0F-36" value="" style="endArrow=none;html=1;rounded=0;exitX=1;exitY=0.5;exitDx=0;exitDy=0;strokeColor=#660033;" edge="1" parent="1" source="bC1rEitKyBzmBk8r_V0F-30">
          <mxGeometry width="50" height="50" relative="1" as="geometry">
            <mxPoint x="140" y="250" as="sourcePoint" />
            <mxPoint x="320" y="280" as="targetPoint" />
          </mxGeometry>
        </mxCell>
        <mxCell id="bC1rEitKyBzmBk8r_V0F-37" value="" style="endArrow=none;html=1;rounded=0;strokeColor=#660033;" edge="1" parent="1">
          <mxGeometry width="50" height="50" relative="1" as="geometry">
            <mxPoint x="320" y="280" as="sourcePoint" />
            <mxPoint x="320" y="-40" as="targetPoint" />
          </mxGeometry>
        </mxCell>
        <mxCell id="bC1rEitKyBzmBk8r_V0F-38" value="" style="endArrow=none;html=1;rounded=0;strokeColor=#660033;exitX=1;exitY=0.5;exitDx=0;exitDy=0;" edge="1" parent="1" source="bC1rEitKyBzmBk8r_V0F-35">
          <mxGeometry width="50" height="50" relative="1" as="geometry">
            <mxPoint x="330" y="290" as="sourcePoint" />
            <mxPoint x="320" y="-40" as="targetPoint" />
          </mxGeometry>
        </mxCell>
        <mxCell id="bC1rEitKyBzmBk8r_V0F-40" value="" style="sketch=0;pointerEvents=1;shadow=0;dashed=0;html=1;strokeColor=none;fillColor=#005F4B;labelPosition=center;verticalLabelPosition=bottom;verticalAlign=top;align=center;outlineConnect=0;shape=mxgraph.veeam2.tag;" vertex="1" parent="1">
          <mxGeometry x="393" y="226" width="28.000000000000004" height="28.000000000000004" as="geometry" />
        </mxCell>
        <mxCell id="bC1rEitKyBzmBk8r_V0F-41" value="" style="sketch=0;pointerEvents=1;shadow=0;dashed=0;html=1;strokeColor=none;fillColor=#FF99FF;labelPosition=center;verticalLabelPosition=bottom;verticalAlign=top;align=center;outlineConnect=0;shape=mxgraph.veeam2.tag;" vertex="1" parent="1">
          <mxGeometry x="393" y="146" width="28.000000000000004" height="28.000000000000004" as="geometry" />
        </mxCell>
        <mxCell id="bC1rEitKyBzmBk8r_V0F-42" value="" style="sketch=0;pointerEvents=1;shadow=0;dashed=0;html=1;strokeColor=none;fillColor=#007FFF;labelPosition=center;verticalLabelPosition=bottom;verticalAlign=top;align=center;outlineConnect=0;shape=mxgraph.veeam2.tag;" vertex="1" parent="1">
          <mxGeometry x="393" y="66" width="28.000000000000004" height="28.000000000000004" as="geometry" />
        </mxCell>
        <mxCell id="bC1rEitKyBzmBk8r_V0F-43" value="" style="sketch=0;pointerEvents=1;shadow=0;dashed=0;html=1;strokeColor=none;fillColor=#CC0000;labelPosition=center;verticalLabelPosition=bottom;verticalAlign=top;align=center;outlineConnect=0;shape=mxgraph.veeam2.tag;" vertex="1" parent="1">
          <mxGeometry x="393" y="-14" width="28.000000000000004" height="28.000000000000004" as="geometry" />
        </mxCell>
        <mxCell id="bC1rEitKyBzmBk8r_V0F-44" value="" style="sketch=0;pointerEvents=1;shadow=0;dashed=0;html=1;strokeColor=none;fillColor=#660033;labelPosition=center;verticalLabelPosition=bottom;verticalAlign=top;align=center;outlineConnect=0;shape=mxgraph.veeam2.tag;" vertex="1" parent="1">
          <mxGeometry x="389" y="-94" width="28.000000000000004" height="28.000000000000004" as="geometry" />
        </mxCell>
        <mxCell id="bC1rEitKyBzmBk8r_V0F-45" value="main" style="text;html=1;align=center;verticalAlign=middle;whiteSpace=wrap;rounded=0;fontColor=#006633;" vertex="1" parent="1">
          <mxGeometry x="468" y="225" width="60" height="30" as="geometry" />
        </mxCell>
        <mxCell id="bC1rEitKyBzmBk8r_V0F-46" value="feature-fog-precision" style="text;html=1;align=center;verticalAlign=middle;whiteSpace=wrap;rounded=0;fontColor=#FF99FF;" vertex="1" parent="1">
          <mxGeometry x="425" y="145" width="140" height="30" as="geometry" />
        </mxCell>
        <mxCell id="bC1rEitKyBzmBk8r_V0F-47" value="feature-noise" style="text;html=1;align=center;verticalAlign=middle;whiteSpace=wrap;rounded=0;fontColor=#007FFF;" vertex="1" parent="1">
          <mxGeometry x="443" y="65" width="110" height="30" as="geometry" />
        </mxCell>
        <mxCell id="bC1rEitKyBzmBk8r_V0F-48" value="feature-channel" style="text;html=1;align=center;verticalAlign=middle;whiteSpace=wrap;rounded=0;fontColor=#CC0000;" vertex="1" parent="1">
          <mxGeometry x="435" y="-15" width="120" height="30" as="geometry" />
        </mxCell>
        <mxCell id="bC1rEitKyBzmBk8r_V0F-49" value="&lt;font color=&quot;#660033&quot;&gt;feature-cycle&lt;/font&gt;" style="text;html=1;align=center;verticalAlign=middle;whiteSpace=wrap;rounded=0;fontColor=#CC0000;" vertex="1" parent="1">
          <mxGeometry x="450" y="-95" width="90" height="30" as="geometry" />
        </mxCell>
      </root>
    </mxGraphModel>
  </diagram>
</mxfile>
